<?xml version="1.0" encoding="utf-8"?>
<!-- Generator: Adobe Illustrator 16.0.0, SVG Export Plug-In . SVG Version: 6.00 Build 0)  -->
<!DOCTYPE svg PUBLIC "-//W3C//DTD SVG 1.1//EN" "http://www.w3.org/Graphics/SVG/1.1/DTD/svg11.dtd">
<svg version="1.1" id="Layer_1" xmlns="http://www.w3.org/2000/svg" xmlns:xlink="http://www.w3.org/1999/xlink" x="0px" y="0px"
	 width="72.001px" height="58.5px" viewBox="114 10.75 72.001 58.5" enable-background="new 114 10.75 72.001 58.5"
	 xml:space="preserve">
<path d="M114,17.5c0-3.729,3.021-6.75,6.75-6.75h58.5c3.729,0,6.751,3.021,6.751,6.75s-3.022,6.75-6.751,6.75h-58.5
	C117.021,24.25,114,21.229,114,17.5z M179.25,33.25h-58.5c-3.729,0-6.75,3.021-6.75,6.75s3.021,6.75,6.75,6.75h58.5
	c3.729,0,6.75-3.021,6.75-6.75S182.979,33.25,179.25,33.25z M179.25,55.75h-58.5c-3.729,0-6.75,3.021-6.75,6.75
	s3.021,6.75,6.75,6.75h58.5c3.729,0,6.751-3.021,6.751-6.75S182.979,55.75,179.25,55.75z"/>
</svg>
